<svg width="179" height="178" viewBox="0 0 179 178" fill="none" xmlns="http://www.w3.org/2000/svg">
<path d="M169 89C169 132.578 133.46 168 89.5 168C45.5405 168 10 132.578 10 89C10 45.4222 45.5405 10 89.5 10C133.46 10 169 45.4222 169 89Z" stroke="#171141" stroke-opacity="0.1" stroke-width="20"/>
<path d="M89.4006 10.0001C109.854 9.97465 129.522 17.7834 144.323 31.7892C159.123 45.7933 167.92 64.9158 168.907 85.1827C169.894 105.449 162.995 125.324 149.628 140.681C136.26 156.04 117.446 165.7 97.0858 167.64C76.7255 169.579 56.4033 163.646 40.3387 151.084C24.2758 138.524 13.7065 120.307 10.806 100.221C7.90571 80.136 12.8933 59.7061 24.745 43.1703C36.5981 26.6326 54.411 15.2556 74.4955 11.4198" stroke="#1A9B87" stroke-width="20"/>
</svg>
