<svg width="69" height="72" viewBox="0 0 69 72" fill="none" xmlns="http://www.w3.org/2000/svg">
<mask id="path-1-inside-1_2295_208" fill="white">
<rect y="33.4895" width="17.9217" height="35.8434" rx="4"/>
</mask>
<rect y="33.4895" width="17.9217" height="35.8434" rx="4" stroke="#1A9B87" stroke-width="10" mask="url(#path-1-inside-1_2295_208)"/>
<path d="M15.4785 37.3645C21.9955 32.2676 33.9704 18.7449 34.6221 8.64358C35.397 -3.36662 45.1097 6.53181 44.3976 13.124C43.583 20.6649 33.8075 32.2676 39.1026 32.2676C41.5464 32.2676 55.395 32.2676 58.6535 32.2676C65.5661 32.2676 70.449 42.0209 59.929 43.8721C59.9182 43.874 59.9165 43.8903 59.9273 43.8927C64.7451 44.9698 65.1397 54.5938 57.5305 53.6695C57.5186 53.668 57.5115 53.6858 57.5227 53.69C61.5129 55.1877 62.657 61.9689 54.2337 62.0012C54.2224 62.0013 54.219 62.0177 54.2296 62.0216C58.2347 63.4796 56.9996 68.5183 51.7292 68.5183H26.8832C22.8101 68.5183 20.7736 67.5055 16.2931 64.247" stroke="#1A9B87" stroke-width="5"/>
</svg>
