<svg width="271" height="168" viewBox="0 0 271 168" fill="none" xmlns="http://www.w3.org/2000/svg">
<path d="M166.867 135.5C171.867 144 164.01 155 152.867 149C144.513 144.501 136.903 137.912 131.852 133.365" stroke="#1A9B87" stroke-width="5" stroke-linecap="round"/>
<path d="M153.367 151C154.367 157.5 147.867 169 123.367 149.5" stroke="#1A9B87" stroke-width="5" stroke-linecap="round"/>
<path d="M37.8906 96.2354L50.7725 107.602" stroke="#1A9B87" stroke-width="5" stroke-linecap="round"/>
<path d="M70.8672 40.1609H100.781" stroke="#1A9B87" stroke-width="5" stroke-linecap="round"/>
<path d="M117.867 51C111.514 61.7509 98.269 82.5825 75.8076 74.4296C74.6082 73.9942 74.2052 72.5362 74.9613 71.5083C84.0725 59.1212 103.127 34.5168 112.867 31.4999C125.87 27.4725 173.526 34.8581 182.619 34.8581" stroke="#1A9B87" stroke-width="5" stroke-linecap="round"/>
<path d="M218.367 84.5L189.439 97.751" stroke="#1A9B87" stroke-width="5" stroke-linecap="round"/>
<path d="M41.3374 18.1775L4.25444 79.3643C1.92269 83.2117 3.22083 88.2247 7.12692 90.4567L24.9545 100.644C28.7614 102.819 33.6099 101.525 35.8263 97.7419L71.7738 36.3832C73.9908 32.5991 72.7478 27.7356 68.9872 25.4793L52.295 15.4639C48.5182 13.1979 43.6202 14.4108 41.3374 18.1775Z" stroke="#1A9B87" stroke-width="5" stroke-linecap="round"/>
<path d="M248.373 65.6373L214.451 14.5458C211.956 10.788 206.85 9.83471 203.167 12.4392L186.459 24.2558C182.867 26.796 182 31.7598 184.518 35.367L218.587 84.1648C220.961 87.565 225.539 88.5876 229.134 86.5205L245.696 76.9976C249.701 74.6944 250.929 69.4866 248.373 65.6373Z" stroke="#1A9B87" stroke-width="5" stroke-linecap="round"/>
<path d="M118.209 50.7695L196.931 104.382C202.152 107.938 203.856 114.856 200.883 120.43V120.43C197.277 127.192 188.453 129.082 182.393 124.391L147.004 96.9927" stroke="#1A9B87" stroke-width="5" stroke-linecap="round"/>
<path d="M185.367 126.5V126.5C187.303 135.705 176.788 142.387 169.277 136.725L141.701 115.937" stroke="#1A9B87" stroke-width="5" stroke-linecap="round"/>
<rect x="43.6926" y="116.13" width="36.4828" height="18.8769" rx="9.43846" transform="rotate(-42.6076 43.6926 116.13)" stroke="#1A9B87" stroke-width="5"/>
<rect x="57.4524" y="129.151" width="45.5672" height="19.5734" rx="9.78672" transform="rotate(-42.6076 57.4524 129.151)" stroke="#1A9B87" stroke-width="5"/>
<rect x="73.9563" y="140.519" width="40.2409" height="19.8194" rx="9.90972" transform="rotate(-42.6076 73.9563 140.519)" stroke="#1A9B87" stroke-width="5"/>
<rect x="92.0852" y="150.508" width="31.6818" height="18.9668" rx="9.4834" transform="rotate(-42.6076 92.0852 150.508)" stroke="#1A9B87" stroke-width="5"/>
</svg>
