<svg width="163" height="32" viewBox="0 0 163 32" fill="none" xmlns="http://www.w3.org/2000/svg">
<path d="M14.8148 3.51246C15.1741 2.40689 16.7382 2.40689 17.0974 3.51246L19.2691 10.1962C19.4297 10.6907 19.8905 11.0254 20.4103 11.0254L27.4381 11.0254C28.6005 11.0254 29.0839 12.5129 28.1434 13.1962L22.4579 17.327C22.0373 17.6326 21.8613 18.1742 22.0219 18.6687L24.1936 25.3524C24.5528 26.458 23.2875 27.3773 22.347 26.6941L16.6615 22.5633C16.2409 22.2577 15.6714 22.2577 15.2508 22.5633L9.56522 26.6941C8.62477 27.3773 7.35939 26.458 7.71861 25.3524L9.8903 18.6687C10.051 18.1742 9.87496 17.6326 9.45438 17.327L3.76882 13.1962C2.82837 12.5129 3.3117 11.0254 4.47417 11.0254L11.5019 11.0254C12.0218 11.0254 12.4825 10.6907 12.6432 10.1962L14.8148 3.51246Z" fill="#FC851B"/>
<path d="M47.5863 3.51246C47.9456 2.40689 49.5096 2.40689 49.8689 3.51246L52.0406 10.1962C52.2012 10.6907 52.662 11.0254 53.1818 11.0254L60.2095 11.0254C61.372 11.0254 61.8553 12.5129 60.9149 13.1962L55.2293 17.327C54.8088 17.6326 54.6328 18.1742 54.7934 18.6687L56.9651 25.3524C57.3243 26.458 56.0589 27.3773 55.1185 26.6941L49.4329 22.5633C49.0124 22.2577 48.4428 22.2577 48.0223 22.5633L42.3367 26.6941C41.3962 27.3773 40.1309 26.458 40.4901 25.3524L42.6618 18.6687C42.8224 18.1742 42.6464 17.6326 42.2259 17.327L36.5403 13.1962C35.5999 12.5129 36.0832 11.0254 37.2457 11.0254L44.2734 11.0254C44.7933 11.0254 45.254 10.6907 45.4146 10.1962L47.5863 3.51246Z" fill="#FC851B"/>
<path d="M80.3578 3.51246C80.717 2.40689 82.2811 2.40689 82.6404 3.51246L84.812 10.1962C84.9727 10.6907 85.4334 11.0254 85.9533 11.0254L92.981 11.0254C94.1435 11.0254 94.6268 12.5129 93.6864 13.1962L88.0008 17.327C87.5802 17.6326 87.4043 18.1742 87.5649 18.6687L89.7366 25.3524C90.0958 26.458 88.8304 27.3773 87.89 26.6941L82.2044 22.5633C81.7838 22.2577 81.2143 22.2577 80.7937 22.5633L75.1082 26.6941C74.1677 27.3773 72.9024 26.458 73.2616 25.3524L75.4333 18.6687C75.5939 18.1742 75.4179 17.6326 74.9973 17.327L69.3118 13.1962C68.3713 12.5129 68.8547 11.0254 70.0171 11.0254L77.0449 11.0254C77.5647 11.0254 78.0255 10.6907 78.1861 10.1962L80.3578 3.51246Z" fill="#FC851B"/>
<path d="M113.131 3.51246C113.49 2.40689 115.055 2.40689 115.414 3.51246L117.585 10.1962C117.746 10.6907 118.207 11.0254 118.727 11.0254L125.754 11.0254C126.917 11.0254 127.4 12.5129 126.46 13.1962L120.774 17.327C120.354 17.6326 120.178 18.1742 120.338 18.6687L122.51 25.3524C122.869 26.458 121.604 27.3773 120.663 26.6941L114.978 22.5633C114.557 22.2577 113.988 22.2577 113.567 22.5633L107.882 26.6941C106.941 27.3773 105.676 26.458 106.035 25.3524L108.207 18.6687C108.367 18.1742 108.191 17.6326 107.771 17.327L102.085 13.1962C101.145 12.5129 101.628 11.0254 102.791 11.0254L109.818 11.0254C110.338 11.0254 110.799 10.6907 110.96 10.1962L113.131 3.51246Z" fill="#FC851B"/>
<path d="M145.903 3.51246C146.262 2.40689 147.826 2.40689 148.185 3.51246L150.357 10.1962C150.518 10.6907 150.978 11.0254 151.498 11.0254L158.526 11.0254C159.688 11.0254 160.172 12.5129 159.231 13.1962L153.546 17.327C153.125 17.6326 152.949 18.1742 153.11 18.6687L155.282 25.3524C155.641 26.458 154.375 27.3773 153.435 26.6941L147.749 22.5633C147.329 22.2577 146.759 22.2577 146.339 22.5633L140.653 26.6941C139.713 27.3773 138.447 26.458 138.807 25.3524L140.978 18.6687C141.139 18.1742 140.963 17.6326 140.542 17.327L134.857 13.1962C133.916 12.5129 134.4 11.0254 135.562 11.0254L142.59 11.0254C143.11 11.0254 143.57 10.6907 143.731 10.1962L145.903 3.51246Z" fill="#FC851B"/>
</svg>
