<svg width="198" height="38" viewBox="0 0 198 38" fill="none" xmlns="http://www.w3.org/2000/svg">
<path d="M16.6489 5.8541C17.2476 4.01147 19.8544 4.01148 20.4531 5.8541L22.267 11.4365C22.5347 12.2605 23.3026 12.8184 24.1691 12.8184H30.0387C31.9762 12.8184 32.7817 15.2977 31.2143 16.4365L26.4656 19.8866C25.7647 20.3959 25.4714 21.2986 25.7391 22.1226L27.5529 27.705C28.1516 29.5476 26.0427 31.0799 24.4752 29.9411L19.7266 26.491C19.0256 25.9817 18.0764 25.9817 17.3755 26.491L12.6268 29.9411C11.0594 31.0799 8.95041 29.5476 9.54912 27.705L11.3629 22.1226C11.6307 21.2986 11.3374 20.3959 10.6364 19.8866L5.88774 16.4365C4.32032 15.2977 5.12587 12.8184 7.06332 12.8184H12.933C13.7994 12.8184 14.5673 12.2605 14.8351 11.4365L16.6489 5.8541Z" fill="#FC851B"/>
<path d="M56.7505 5.8541C57.3492 4.01147 59.956 4.01148 60.5547 5.8541L62.3685 11.4365C62.6363 12.2605 63.4042 12.8184 64.2706 12.8184H70.1403C72.0777 12.8184 72.8833 15.2977 71.3159 16.4365L66.5672 19.8866C65.8662 20.3959 65.5729 21.2986 65.8407 22.1226L67.6545 27.705C68.2532 29.5476 66.1442 31.0799 64.5768 29.9411L59.8282 26.491C59.1272 25.9817 58.178 25.9817 57.477 26.491L52.7284 29.9411C51.1609 31.0799 49.052 29.5476 49.6507 27.705L51.4645 22.1226C51.7322 21.2986 51.4389 20.3959 50.738 19.8866L45.9893 16.4365C44.4219 15.2977 45.2274 12.8184 47.1649 12.8184H53.0345C53.901 12.8184 54.6689 12.2605 54.9366 11.4365L56.7505 5.8541Z" fill="#FC851B"/>
<path d="M96.852 5.8541C97.4507 4.01147 100.058 4.01148 100.656 5.8541L102.47 11.4365C102.738 12.2605 103.506 12.8184 104.372 12.8184H110.242C112.179 12.8184 112.985 15.2977 111.417 16.4365L106.669 19.8866C105.968 20.3959 105.674 21.2986 105.942 22.1226L107.756 27.705C108.355 29.5476 106.246 31.0799 104.678 29.9411L99.9297 26.491C99.2287 25.9817 98.2795 25.9817 97.5786 26.491L92.8299 29.9411C91.2625 31.0799 89.1535 29.5476 89.7522 27.705L91.5661 22.1226C91.8338 21.2986 91.5405 20.3959 90.8395 19.8866L86.0909 16.4365C84.5234 15.2977 85.329 12.8184 87.2664 12.8184H93.1361C94.0026 12.8184 94.7705 12.2605 95.0382 11.4365L96.852 5.8541Z" fill="#FC851B"/>
<path d="M136.954 5.8541C137.552 4.01147 140.159 4.01148 140.758 5.8541L142.572 11.4365C142.839 12.2605 143.607 12.8184 144.474 12.8184H150.343C152.281 12.8184 153.086 15.2977 151.519 16.4365L146.77 19.8866C146.069 20.3959 145.776 21.2986 146.044 22.1226L147.858 27.705C148.456 29.5476 146.347 31.0799 144.78 29.9411L140.031 26.491C139.33 25.9817 138.381 25.9817 137.68 26.491L132.931 29.9411C131.364 31.0799 129.255 29.5476 129.854 27.705L131.668 22.1226C131.935 21.2986 131.642 20.3959 130.941 19.8866L126.192 16.4365C124.625 15.2977 125.431 12.8184 127.368 12.8184H133.238C134.104 12.8184 134.872 12.2605 135.14 11.4365L136.954 5.8541Z" fill="#FC851B"/>
<path d="M177.055 5.8541C177.654 4.01147 180.261 4.01148 180.859 5.8541L182.673 11.4365C182.941 12.2605 183.709 12.8184 184.575 12.8184H190.445C192.382 12.8184 193.188 15.2977 191.621 16.4365L186.872 19.8866C186.171 20.3959 185.878 21.2986 186.145 22.1226L187.959 27.705C188.558 29.5476 186.449 31.0799 184.881 29.9411L180.133 26.491C179.432 25.9817 178.483 25.9817 177.782 26.491L173.033 29.9411C171.466 31.0799 169.357 29.5476 169.955 27.705L171.769 22.1226C172.037 21.2986 171.744 20.3959 171.043 19.8866L166.294 16.4365C164.727 15.2977 165.532 12.8184 167.47 12.8184H173.339C174.206 12.8184 174.974 12.2605 175.241 11.4365L177.055 5.8541Z" fill="#FC851B"/>
</svg>
